<?xml version="1.0" encoding="UTF-8"?>
<svg id="_レイヤー_2" data-name="レイヤー 2" xmlns="http://www.w3.org/2000/svg" viewBox="0 0 115.63 101.48">
  <defs>
    <style>
      .cls-1 {
        fill: #aeaeae;
      }
    </style>
  </defs>
  <g id="_アイコン" data-name="アイコン">
    <g>
      <polygon class="cls-1" points="32.79 67.65 5.31 67.65 0 98.15 38.1 98.15 32.79 67.65"/>
      <polygon class="cls-1" points="71.56 67.65 44.07 67.65 38.77 98.15 76.86 98.15 71.56 67.65"/>
      <polygon class="cls-1" points="51.71 33.83 24.23 33.83 18.92 64.32 57.02 64.32 51.71 33.83"/>
      <polygon class="cls-1" points="110.32 67.65 82.84 67.65 77.53 98.15 115.63 98.15 110.32 67.65"/>
      <polygon class="cls-1" points="90.48 33.83 63 33.83 57.69 64.32 95.79 64.32 90.48 33.83"/>
      <polygon class="cls-1" points="71.56 0 44.07 0 38.77 30.49 76.86 30.49 71.56 0"/>
      <rect class="cls-1" x="38.77" y="30.49" width="38.1" height="3.33"/>
      <rect class="cls-1" x="18.92" y="64.32" width="38.1" height="3.33"/>
      <rect class="cls-1" x="57.69" y="64.32" width="38.1" height="3.33"/>
      <rect class="cls-1" x="38.77" y="98.15" width="38.1" height="3.33"/>
      <rect class="cls-1" x="77.53" y="98.15" width="38.1" height="3.33"/>
      <rect class="cls-1" y="98.15" width="38.1" height="3.33"/>
    </g>
  </g>
</svg>