<?xml version="1.0" encoding="UTF-8"?>
<svg id="_レイヤー_2" data-name="レイヤー 2" xmlns="http://www.w3.org/2000/svg" viewBox="0 0 149.16 135.34">
  <defs>
    <style>
      .cls-1 {
        fill: #fff;
      }

      .cls-2 {
        fill: #aeaeae;
      }

      .cls-3 {
        fill: none;
        stroke: #fff;
        stroke-linecap: round;
        stroke-linejoin: round;
        stroke-width: 2px;
      }
    </style>
  </defs>
  <g id="_アイコン" data-name="アイコン">
    <g>
      <g>
        <circle class="cls-2" cx="74.58" cy="69.13" r="37.07"/>
        <path class="cls-3" d="m37.51,87.11h30.08v6.27c0,2.91,2.38,5.3,5.3,5.3h3.41c2.91,0,5.3-2.38,5.3-5.3v-6.27h27.21"/>
        <path class="cls-1" d="m74.15,95.76s-3.56-.58-2.65-6.04c.91-5.46,2.58-20.2,1.64-26.69-1.2-8.3.26-20.65,2.33-23.46,0,0-1.05,4.59-1.21,10.6-.12,4.51.48,9.9,1.21,14.23,1.55,9.08,3.96,23.01,2.02,28.87-.59,1.8-1.85,2.49-3.34,2.49Z"/>
      </g>
      <g>
        <path class="cls-2" d="m149.12,81.11l.04-.03-7.67-3.01c1.09-7,1.05-13.98.02-20.76-1.46-9.74-5.03-18.98-10.52-27.15-3.83-5.74-8.55-10.97-14.15-15.44-24.36-19.43-58.54-19.35-82.73-1.33l12.35,11.4c.33-.21.66-.43.99-.63.44-.27.88-.54,1.32-.8.75-.44,1.51-.83,2.28-1.22.63-.32,1.25-.65,1.89-.95.45-.21.91-.38,1.37-.58,3.07-1.3,6.25-2.32,9.5-3.01.35-.07.69-.16,1.04-.23.94-.18,1.88-.32,2.83-.45.53-.07,1.06-.14,1.58-.2.83-.09,1.66-.15,2.49-.2.74-.04,1.48-.06,2.22-.07.65-.01,1.3-.02,1.94,0,1.21.03,2.41.1,3.62.21.2.02.41.02.61.05,9.39,1.01,18.59,4.6,26.44,10.86,11.91,9.51,18.76,23.46,19.26,38.23.07,2.02.02,4.05-.16,6.09l-4.66-1.83-2.33-.94v.03s-.04-.02-.04-.02l4.88,32.39,17.07-13.61,8.52-6.76h-.02Z"/>
        <path class="cls-2" d="m103.29,110.17c-.52.35-1.05.69-1.58,1.02-.44.27-.88.55-1.33.8-.74.43-1.51.83-2.27,1.22-.63.32-1.25.66-1.89.95-.45.21-.91.38-1.36.57-3.07,1.31-6.25,2.32-9.51,3.02-.35.07-.69.16-1.04.23-.94.18-1.88.32-2.82.45-.53.07-1.06.14-1.59.2-.82.09-1.65.15-2.48.2-.74.04-1.48.06-2.23.07-.65.01-1.29.02-1.94,0-1.21-.03-2.42-.1-3.62-.22-.2-.02-.4-.02-.6-.04-9.39-1.01-18.59-4.6-26.45-10.86-11.94-9.53-18.78-23.52-19.26-38.32-.06-1.99-.02-3.99.16-6l4.67,1.83,2.31.93v-.03s.05.02.05.02l-3.25-21.58-1.6-10.78-.02.02v-.05s-17.03,13.57-17.03,13.57L.02,54.22h.02s-.04.04-.04.04l7.67,3.01c-1.09,6.98-1.05,13.96-.03,20.73,1.45,9.75,5.03,18.99,10.51,27.17,3.83,5.75,8.56,10.98,14.17,15.46,4.27,3.41,8.85,6.22,13.62,8.44,22.56,10.49,49.47,7.72,69.45-7.37l-12.1-11.52Z"/>
      </g>
    </g>
  </g>
</svg>