<?xml version="1.0" encoding="UTF-8"?>
<svg id="_レイヤー_2" data-name="レイヤー 2" xmlns="http://www.w3.org/2000/svg" viewBox="0 0 298.66 334.69">
  <defs>
    <style>
      .cls-1 {
        fill: #192b46;
      }
    </style>
  </defs>
  <g id="design">
    <g>
      <path class="cls-1" d="m227.9,0H65.27c-2.41.44-3.32,1.82-3.31,5.39.02,5.26-.02,10.52-.01,15.78,0,32.35-.18,64.7-.06,97.04.11,30.18,14.59,53.01,37.75,71,13.13,10.2,27.72,17.78,43.54,22.89,1.94.63,4.39,1.03,6.22.4,29.94-10.27,55.58-26.33,72.05-54.44,6.99-11.93,9.51-23.49,9.64-37.11.05-5.56.08-11.21.11-16.82V4.06c-.36-2.32-1.39-3.71-3.29-4.06m-117.3,9.16h31.1v143.8c-2.3-.55-4.23-.85-6.04-1.47-15.73-5.39-24.87-18.68-24.95-36.76-.13-32.64-.08-65.28-.11-97.92v-7.65m31.17,192.78c-7.94-4.04-14.98-7.23-21.65-11.06-32.09-18.45-50.67-44.44-49.22-83.31,1.07-28.76-.16-57.6-.02-86.4.02-2.65.02-5.3.06-7.95.02-1.34-.07-2.67,0-4.05h30.41c0,2.88,0,5.4,0,7.93-.05,33.44-.15,66.89-.11,100.33.01,12.04,4.23,22.45,12.49,31.34,7.62,8.2,17.29,12.29,28.03,14.53v38.64Zm8.98-192.78h71.48c.08,1.38-.02,2.72,0,4.05.04,2.65.05,5.3.06,7.95l-.06,54.81c-.41-.12-.68-.11-.76-.23-5.72-9.35-12.7-17.98-21.19-24.95-8.21-6.74-17.71-11.77-27.87-14.84-3.85-1.16-7.76-2.15-11.74-2.78-.43-.07-9.92-.95-9.92-.66V9.16Zm0,72.05c19.71,4.05,33.69,20.47,32.11,38.45-1.55,17.65-16.54,33.06-32.11,33.39v-71.85Zm48.74,90.46c-13.59,13.42-31.05,23.45-48.74,30.27v-37.99c27.1-8.47,41.67-23.59,42.04-46.31.16-9.31-2.54-18.09-7.87-25.83-7.93-11.52-20.41-18.26-34.17-20.2v-29.19c0-.8,12.76,1.31,13.92,1.61,4.36,1.09,8.63,2.53,12.74,4.33,5.33,2.34,10.38,5.31,15,8.84,4.73,3.62,9,7.82,12.77,12.43,25.57,31.39,23.08,73.62-5.69,102.03"/>
      <path class="cls-1" d="m27.24,268.12c6.19-1.51,12.14-4.34,12.14-12.54s-9.04-10.22-14.39-10.22H.28v1.52l.5.03c1.37.08,3.45.45,4.78,1.02,1.28.53,1.87,1.55,1.87,3.19v38.26c0,1.57-.53,2.41-1.86,2.91-.83.32-3.83.82-5.08.89l-.5.03v1.52h25.14c6.49,0,16.79-3.62,16.79-13.33,0-9.13-8.69-12.56-14.68-13.28m4.94,11.86c0,3.01-.73,12.84-10.09,12.84-4.82,0-5.77-1.14-6.19-3.79v-19.37c1.52-.06,4.44-.12,5.56-.12,7.37,0,10.72,5.41,10.72,10.44m-16.28-12.34v-20.33c1.71-.05,4.22-.05,5.34-.05,4.14,0,8.6,3.02,8.6,9.66,0,4-1.3,10.72-10.01,10.72h-3.93Z"/>
      <path class="cls-1" d="m98.83,279.95l-.12.36c-.72,2.17-4.31,8.98-6.31,11.05-1.43,1.48-5.22,1.47-9.64,1.47h-1.02c-7.08,0-7.9-.61-7.9-5.91v-36.28c0-1.72.55-2.63,1.84-3.04,1.06-.35,3.29-.58,5.02-.68l.5-.03v-1.52h-23.19v1.52l.5.03c1.25.07,3.73.49,4.91,1.02,1.57.69,1.88,1.68,1.88,3.05v38.41c0,1.62-.53,2.48-1.86,2.98-.93.37-3.62.73-5,.81l-.5.03v1.51h41.47l.99-14.77h-1.58Z"/>
      <path class="cls-1" d="m153.9,252.54c-4.96-4.83-10.7-7.18-17.53-7.18s-12.84,2.48-17.46,7.18c-4.45,4.45-6.71,10.51-6.71,18.01s2.49,13.07,7.39,17.68h0c4.53,4.25,10.23,6.49,16.51,6.49,6.79,0,12.57-2.23,17.18-6.63,4.77-4.51,7.19-10.69,7.19-18.35,0-6.65-2.46-13.08-6.57-17.2m-17.53-5.36c11,0,14.92,11.76,14.92,22.76,0,14.38-5.58,22.97-14.92,22.97-11.05,0-14.99-11.72-14.99-22.7,0-14.42,5.6-23.03,14.99-23.03"/>
      <path class="cls-1" d="m216.85,252.54c-4.96-4.83-10.7-7.18-17.53-7.18s-12.84,2.48-17.46,7.18c-4.45,4.45-6.71,10.51-6.71,18.01s2.49,13.07,7.39,17.68h0c4.53,4.25,10.23,6.49,16.51,6.49,6.79,0,12.57-2.23,17.19-6.63,4.77-4.51,7.19-10.69,7.19-18.35,0-6.65-2.46-13.08-6.57-17.2m-17.53-5.36c11,0,14.92,11.76,14.92,22.76,0,14.38-5.58,22.97-14.92,22.97-11.05,0-14.99-11.72-14.99-22.7,0-14.42,5.6-23.03,14.99-23.03"/>
      <path class="cls-1" d="m298.16,293.18c-1.32-.07-4.38-.65-5.11-1.01-1.35-.64-1.89-1.51-1.89-2.99v-38.41c0-1.67.54-2.56,1.83-2.97,1.18-.39,3.79-.82,5.1-.89l.5-.03v-1.52h-16.42l-.05.48c-.07.77-.49,3.33-1.59,5.86l-12.63,29.97-17.04-36-.14-.3h-16.35v1.53l.5.02c1.9.07,4.49.41,6.06,1.65,1.32,1.06,1.99,2.94,1.99,5.6v28.85c0,5.23-.59,7.69-2.11,8.77-1.32.94-4.12,1.19-5.61,1.32-.29.02-.53.05-.72.07l-.47.05v1.49h20.64v-1.52l-.5-.03c-1.65-.09-6.01-.63-6.98-1.44-1.55-1.27-2.21-3.88-2.21-8.72v-30.46l14.63,31.24c1.4,3.16,2.93,7.18,3.73,9.77l.11.37h1.51l17.73-41.93v37.16c0,1.5-.57,2.41-1.97,3.14-.8.4-4.25.77-5.95.86l-.5.03v1.52h24.39v-1.52l-.5-.03Z"/>
      <path class="cls-1" d="m60.25,311.11c.6-.2,1.78-.4,2.35-.44l.5-.03v-1.27h-12.06v1.27l.5.03c.61.03,1.85.27,2.37.49.53.23.79.68.79,1.37v8.25h-11.2v-8.43c0-.73.2-1.07.74-1.24.58-.19,1.82-.4,2.42-.44l.5-.03v-1.27h-12.06v1.27l.5.03c.58.03,1.76.27,2.31.49.54.22.78.64.78,1.36v19.28c0,.69-.21,1.04-.76,1.25-.35.13-1.62.28-2.33.32l-.5.03v1.27h12.06v-1.27l-.5-.03c-.66-.04-2.06-.25-2.37-.38-.53-.23-.79-.68-.79-1.37v-9.31h11.2v9.49c0,.69-.21,1.04-.76,1.25-.34.13-1.65.28-2.4.32l-.5.03v1.27h12.06v-1.27l-.5-.03c-.76-.04-2-.23-2.29-.37-.56-.27-.8-.69-.8-1.37v-19.28c0-.73.2-1.07.74-1.24"/>
      <path class="cls-1" d="m90.95,313.06c-2.54-2.47-5.48-3.68-8.98-3.68s-6.58,1.27-8.95,3.68c-2.28,2.28-3.44,5.39-3.44,9.22,0,3.6,1.31,6.73,3.8,9.06h0c2.32,2.18,5.25,3.33,8.46,3.33,3.48,0,6.44-1.15,8.81-3.4,2.45-2.32,3.69-5.48,3.69-9.41,0-3.41-1.26-6.7-3.38-8.82m-8.98-2.27c6.72,0,7.25,8.56,7.25,11.19,0,7.07-2.71,11.29-7.25,11.29-5.37,0-7.28-5.76-7.28-11.15,0-7.09,2.72-11.32,7.28-11.32"/>
      <path class="cls-1" d="m121.41,326.75l-.12.36c-.36,1.07-2.13,4.43-3.11,5.45-.64.66-2.58.66-4.65.66h-.51c-3.43,0-3.7-.2-3.7-2.71v-18.22c0-.86.29-1.13.74-1.28.5-.17,1.6-.28,2.46-.33l.5-.03v-1.27h-12.16v1.27l.5.03c.6.03,1.82.24,2.37.49.59.26.79.59.79,1.3v19.28c0,.71-.2,1.04-.77,1.25-.43.17-1.75.35-2.43.39l-.5.03v1.27h21.33l.53-7.94h-1.26Z"/>
      <path class="cls-1" d="m141.24,309.38h-11.96v1.27l.5.03c.49.03,1.5.09,2.31.43.19.08.78.32.78,1.43v19.28c0,.69-.21,1.04-.76,1.25-.37.14-1.73.32-2.44.32h-.53v1.3h11.39c7.21,0,14.48-3.86,14.48-12.49,0-10.11-8.65-12.81-13.77-12.81m-3.56,1.49c.8-.03,1.91-.05,2.57-.05,5.51,0,9.35,4.66,9.35,11.34,0,7.02-3.12,11.05-8.57,11.05-2.56,0-3.18-.87-3.34-2.21v-20.13Z"/>
      <path class="cls-1" d="m170.73,311.11c.57-.19,1.83-.4,2.45-.44l.5-.03v-1.27h-12.2v1.27l.5.03c.62.03,1.9.28,2.42.49.54.22.78.64.78,1.36v19.28c0,.69-.21,1.04-.76,1.25-.34.13-1.67.28-2.43.32l-.5.03v1.27h12.2v-1.27l-.5-.03c-.68-.04-2.1-.25-2.41-.38-.53-.23-.79-.68-.79-1.37v-19.28c0-.73.2-1.07.74-1.24"/>
      <path class="cls-1" d="m197.78,309.38v1.26l.5.02c1.13.05,2.67.28,3.29.77.46.36.99,1.84.99,4.83v10.77l-14.39-17.66h-8.01v1.27l.5.02c.94.04,2.59.29,3.28.84.57.45,1.11,1.73,1.11,2.62v13.78c0,2.56-.29,3.88-.96,4.41-.34.27-2.32.8-2.98.84l-.49.03v1.25h10.78v-1.25l-.49-.03c-.64-.04-2.74-.49-3.34-.96-.67-.49-.98-1.91-.98-4.47v-12.92l16.15,19.87h1.37v-18.42c0-3.79.66-4.65.93-4.85.62-.42,2.26-.72,2.97-.76l.49-.03v-1.26h-10.71Z"/>
      <path class="cls-1" d="m227.94,322.67v1.24l.47.03c.61.03,2.47.24,3.18.51.39.15.79.45.79,1.52v3.02c-.15,1.42-1.05,3.8-5.27,3.8s-7.05-4.18-7.05-10.66c0-7.03,2.61-11.23,6.99-11.23s7.19,3.79,8.33,7.34l.11.34h1.14l-.19-9.09h-1.07l-1.03,1.69c-1.32-.92-3.73-1.79-6.17-1.79-7.41,0-13.21,5.7-13.21,12.97,0,7.79,5.59,12,10.85,12,2.41,0,5.01-.55,8.15-1.73l1.87,2.07.86-.37v-8.65c0-.7.2-1.06.71-1.3.43-.18,1.19-.28,1.75-.36.2-.03.38-.05.53-.08l.42-.07v-1.19h-12.16Z"/>
      <path class="cls-1" d="m258.44,320.26c-.64-.3-1.26-.53-1.89-.77-.87-.33-1.77-.67-2.74-1.2-2-1.09-2.82-2.22-2.82-3.87,0-2.32,1.8-3.57,3.5-3.57,3.16,0,5.31,2.25,6.78,7.07l.11.36h1.2l-.2-8.79h-1.03l-1.06,1.51c-1.27-.83-3.3-1.61-5.67-1.61-4.19,0-7.36,2.94-7.36,6.84,0,3.12,1.42,5.27,4.34,6.56,1.43.64,2.37,1.01,3.55,1.49l1.36.54c1.98.79,3.11,2.25,3.11,4.02,0,1.03-.31,4.39-4.26,4.39s-6.03-3.53-7.51-7.35l-.12-.32h-1.18l.27,9.03h1.07l1.06-1.57c1.35.88,3.7,1.68,6.34,1.68,4.78,0,8.25-3.21,8.25-7.64,0-4.08-2.32-5.49-5.12-6.8"/>
    </g>
  </g>
</svg>