<?xml version="1.0" encoding="UTF-8"?>
<svg id="_レイヤー_2" data-name="レイヤー 2" xmlns="http://www.w3.org/2000/svg" viewBox="0 0 124.73 123.39">
  <defs>
    <style>
      .cls-1 {
        fill: #aeaeae;
      }

      .cls-2 {
        fill: none;
        stroke: #fff;
        stroke-miterlimit: 10;
      }
    </style>
  </defs>
  <g id="_アイコン" data-name="アイコン">
    <g>
      <polygon class="cls-1" points="118.84 96.36 118.84 57.01 124.73 57.01 124.73 53.26 62.37 0 62.37 0 62.37 0 62.37 0 62.37 0 48.98 11.43 48.98 0 35.33 0 35.33 23.09 0 53.26 0 57.01 5.89 57.01 5.89 96.36 7.49 96.36 7.49 101.98 0 101.98 2.14 110.54 15.79 110.54 17.08 104.66 51.12 104.66 51.12 119.91 8.83 119.91 8.83 123.39 51.12 123.39 56.74 123.39 62.37 123.39 62.37 123.39 67.99 123.39 73.61 123.39 115.9 123.39 115.9 119.91 73.61 119.91 73.61 104.66 107.65 104.66 108.94 110.54 122.59 110.54 124.73 101.98 117.24 101.98 117.24 96.36 118.84 96.36"/>
      <polygon class="cls-2" points="8.74 54.16 115.99 54.16 118.84 54.16 121.38 54.16 62.36 3.75 3.35 54.16 4.82 54.16 8.74 54.16"/>
      <rect class="cls-2" x="8.74" y="57.01" width="107.24" height="37.87"/>
      <line class="cls-2" x1="51.26" y1="57.01" x2="51.26" y2="123.39"/>
      <line class="cls-2" x1="73.61" y1="57.01" x2="73.61" y2="123.39"/>
      <polyline class="cls-2" points="51.26 60.09 23.82 85.12 23.82 94.89"/>
      <line class="cls-2" x1="8.74" y1="87.93" x2="23.82" y2="87.93"/>
      <line class="cls-2" x1="8.74" y1="91.27" x2="23.82" y2="91.27"/>
      <line class="cls-2" x1="48.44" y1="15.65" x2="76.29" y2="15.65"/>
      <line class="cls-2" x1="44.67" y1="18.87" x2="80.06" y2="18.87"/>
      <line class="cls-2" x1="8.74" y1="85.32" x2="23.82" y2="85.32"/>
      <line class="cls-2" x1="58.28" y1="57.01" x2="58.28" y2="94.89"/>
      <line class="cls-2" x1="65.71" y1="94.89" x2="73.47" y2="103.59"/>
    </g>
  </g>
</svg>