<?xml version="1.0" encoding="UTF-8"?>
<svg id="_レイヤー_2" data-name="レイヤー 2" xmlns="http://www.w3.org/2000/svg" viewBox="0 0 79.53 116.6">
  <defs>
    <style>
      .cls-1 {
        fill: #aeaeae;
      }
    </style>
  </defs>
  <g id="_アイコン" data-name="アイコン">
    <g>
      <path class="cls-1" d="m67.87,48.74c-3.36-3.37-7.33-6.13-11.72-8.12l18.6-24.13L57.02,0H22.51L4.77,16.48l18.6,24.14c-4.4,1.99-8.37,4.76-11.73,8.12C4.46,55.92,0,65.87,0,76.84s4.46,20.92,11.64,28.11c7.19,7.19,17.15,11.65,28.12,11.65s20.93-4.46,28.11-11.65c7.19-7.19,11.65-17.14,11.65-28.11s-4.46-20.93-11.65-28.11Zm-17.92-10.33l-3.53,4.57,1.81-4.98,3.62-9.91,13.92-10.2-15.82,20.53Zm-2.13-9.66l-3.15,8.64-2.2,6.06-.78,2.13h-4.09l-.77-2.11-2.21-6.05-3.16-8.67h16.35Zm-16.62-3.57l2.09-8.31h12.71l2.09,8.31h-16.89Zm26.04-16.43l6.59,6.13-12.37,9.08-2.07-8.26,7.85-6.95Zm-32.27-2.49h29.59l.04.05-7.89,6.99h-13.88l-7.89-7,.03-.04Zm-2.67,2.49l7.64,6.76h0s-2.12,8.43-2.12,8.43l-12.23-8.96,6.71-6.23Zm-8.22,9.56l13.34,9.78,3.63,9.96,1.57,4.3-3.04-3.94-15.49-20.1Zm49.39,82.24c-6.07,6.07-14.43,9.81-23.7,9.81s-17.62-3.74-23.69-9.81c-6.07-6.07-9.81-14.43-9.81-23.69s3.74-17.62,9.81-23.7c3.19-3.18,7.01-5.73,11.25-7.43l3.33,4.32h18.24l3.33-4.32c4.24,1.7,8.06,4.24,11.25,7.43,6.07,6.07,9.81,14.43,9.81,23.7s-3.74,17.62-9.81,23.69Z"/>
      <path class="cls-1" d="m39.76,53.27c-6.5,0-12.41,2.64-16.67,6.91-4.26,4.26-6.91,10.17-6.91,16.67s2.64,12.41,6.91,16.67c4.26,4.26,10.17,6.91,16.67,6.91s12.41-2.65,16.67-6.91c4.26-4.26,6.91-10.17,6.91-16.67s-2.65-12.41-6.91-16.67c-4.26-4.26-10.17-6.91-16.67-6.91Zm12.88,36.46c-3.3,3.3-7.84,5.33-12.88,5.33s-9.57-2.03-12.88-5.33c-3.3-3.31-5.34-7.84-5.34-12.88s2.03-9.57,5.34-12.88c3.3-3.3,7.84-5.33,12.88-5.34,5.04,0,9.58,2.03,12.88,5.34,3.3,3.31,5.34,7.84,5.34,12.88s-2.03,9.57-5.34,12.88Z"/>
    </g>
  </g>
</svg>