<?xml version="1.0" encoding="UTF-8"?>
<svg id="_レイヤー_2" data-name="レイヤー 2" xmlns="http://www.w3.org/2000/svg" viewBox="0 0 123.42 123.83">
  <defs>
    <style>
      .cls-1 {
        fill: #fff;
      }

      .cls-2 {
        fill: #aeaeae;
      }

      .cls-3 {
        fill: none;
        stroke: #fff;
        stroke-miterlimit: 10;
      }
    </style>
  </defs>
  <g id="_アイコン" data-name="アイコン">
    <g>
      <g>
        <rect class="cls-2" x="40.45" y="35.81" width="28.54" height="14.18"/>
        <rect class="cls-2" x="27.72" y="43.99" width="52.54" height="78.8"/>
      </g>
      <g>
        <rect class="cls-2" x="36.49" y="59.53" width="31.72" height="63.8"/>
        <path class="cls-1" d="m67.72,60.03v62.8h-30.72v-62.8h30.72m1-1h-32.72v64.8h32.72V59.03h0Z"/>
      </g>
      <polygon class="cls-2" points="94.26 12.91 94.26 0 81.35 0 81.35 12.91 76.81 12.91 76.81 122.79 98.08 122.79 98.08 12.91 94.26 12.91"/>
      <rect class="cls-2" x="98.08" y="36.35" width="13.72" height="59.36"/>
      <g>
        <rect class="cls-2" x="93.31" y="87.71" width="11.06" height="35.62"/>
        <path class="cls-1" d="m103.87,88.21v34.62h-10.06v-34.62h10.06m1-1h-12.06v36.62h12.06v-36.62h0Z"/>
      </g>
      <g>
        <polygon class="cls-2" points=".5 123.33 .5 71.72 3.29 71.72 3.29 64.65 5.65 64.65 5.65 58.19 24.65 58.19 24.65 64.65 27.01 64.65 27.01 71.72 29.8 71.72 29.8 123.33 .5 123.33"/>
        <path class="cls-1" d="m24.15,58.69v6.46h2.36v7.07h2.79v50.61H1v-50.61h2.79v-7.07h2.36v-6.46h18m1-1H5.15v6.46h-2.36v7.07H0v52.61h30.3v-52.61h-2.79v-7.07h-2.36v-6.46h0Z"/>
      </g>
      <g>
        <rect class="cls-2" x="80.7" y="80.02" width="13.63" height="43.31"/>
        <path class="cls-1" d="m93.83,80.52v42.31h-12.63v-42.31h12.63m1-1h-14.63v44.31h14.63v-44.31h0Z"/>
      </g>
      <g>
        <polygon class="cls-2" points="103.37 123.33 103.37 79.03 107.86 79.03 107.86 74.5 110.18 74.5 110.18 69.96 116.11 69.96 116.11 74.5 118.43 74.5 118.43 79.03 122.92 79.03 122.92 123.33 103.37 123.33"/>
        <path class="cls-1" d="m115.61,70.46v4.54h2.32v4.54h4.49v43.3h-18.55v-43.3h4.49v-4.54h2.32v-4.54h4.93m1-1h-6.93v4.54h-2.32v4.54h-4.49v45.3h20.55v-45.3h-4.49v-4.54h-2.32v-4.54h0Z"/>
      </g>
      <line class="cls-3" x1="107.27" y1="78.99" x2="118.9" y2="78.99"/>
      <line class="cls-3" x1="107.27" y1="74.45" x2="118.9" y2="74.45"/>
    </g>
  </g>
</svg>