<?xml version="1.0" encoding="UTF-8"?>
<svg id="_レイヤー_2" data-name="レイヤー 2" xmlns="http://www.w3.org/2000/svg" viewBox="0 0 126.36 101.19">
  <defs>
    <style>
      .cls-1 {
        fill: #aeaeae;
      }
    </style>
  </defs>
  <g id="_アイコン" data-name="アイコン">
    <path class="cls-1" d="m121.07,23.85h-8.49s-5.6,0-6.96,5.29c-.12.48-.25.96-.37,1.44-3.41-8.44-9.04-21.98-9.52-23.17-1.84-4.62-6.38-7.4-10.82-7.4h-43.47c-4.43,0-8.98,2.78-10.82,7.4-.48,1.19-6.11,14.73-9.52,23.17-.13-.48-.25-.96-.37-1.44-1.35-5.29-6.96-5.29-6.96-5.29H5.29c-2.92,0-5.29,2.85-5.29,6.39s4.08,6.38,7,6.38c0,0,6.8-.18,7.95.56.63.4,1.34,1.44,1.86,2.31-2.24,2.87-5.89,7.56-6.13,7.87-1.99,2.57-1.85,4.79-1.85,7.02v25.65c0,4.79.71,7.41,5.39,7.41h.44v6.05c0,5.1,3.43,7.7,7.66,7.7s7.66-2.6,7.66-7.7v-6.05h66.39v6.05c0,5.1,3.43,7.7,7.66,7.7s7.66-2.6,7.66-7.7v-6.05h.44c4.68,0,5.39-2.62,5.39-7.41v-25.65c0-2.22.14-4.45-1.85-7.02-.24-.31-3.89-5-6.13-7.87.52-.87,1.23-1.91,1.86-2.31,1.16-.74,7.95-.56,7.95-.56,2.92,0,7-2.86,7-6.38s-2.37-6.39-5.29-6.39ZM21.93,58.45c3.24,0,5.87,2.63,5.87,5.87s-2.63,5.87-5.87,5.87-5.87-2.63-5.87-5.87,2.63-5.87,5.87-5.87Zm53.04,20.9c0,.76-.51,1.37-1.13,1.37h-21.3c-.62,0-1.13-.61-1.13-1.37v-9.15c0-.75.51-1.36,1.13-1.36h21.3c.62,0,1.13.61,1.13,1.36v9.15Zm-11.72-42.64H30.25c-2.55,0-3.31-3.48-2.45-5.35,0,0,7.41-17.84,7.96-19.17.94-2.27,3.63-3.92,6.39-3.92h42.04c2.76,0,5.45,1.65,6.39,3.92.56,1.33,7.96,19.17,7.96,19.17.86,1.87.1,5.35-2.45,5.35h-32.87Zm47.07,27.61c0,3.24-2.63,5.87-5.87,5.87s-5.87-2.63-5.87-5.87,2.63-5.87,5.87-5.87,5.87,2.63,5.87,5.87Z"/>
  </g>
</svg>